<?xml version="1.0" encoding="iso-8859-1"?>
<!-- Generator: Adobe Illustrator 19.0.0, SVG Export Plug-In . SVG Version: 6.00 Build 0)  -->
<svg version="1.1" id="Capa_1" xmlns="http://www.w3.org/2000/svg" xmlns:xlink="http://www.w3.org/1999/xlink" x="0px" y="0px"
	 viewBox="0 0 480 480" style="enable-background:new 0 0 480 480;" xml:space="preserve">
<g>
	<g>
		<path d="M472,344h-16V112c-0.026-22.08-17.92-39.974-40-40H64c-22.08,0.026-39.974,17.92-40,40v232H8c-4.418,0-8,3.582-8,8v16
			c0.026,22.08,17.92,39.974,40,40h400c22.08-0.026,39.974-17.92,40-40v-16C480,347.582,476.418,344,472,344z M40,112
			c0-13.255,10.745-24,24-24h352c13.255,0,24,10.745,24,24v232H40V112z M464,368c0,13.255-10.745,24-24,24H40
			c-13.255,0-24-10.745-24-24v-8h448V368z"/>
	</g>
</g>
<g>
	<g>
		<path d="M424,96H56c-4.418,0-8,3.582-8,8v224c0,4.418,3.582,8,8,8h368c4.418,0,8-3.582,8-8V104C432,99.582,428.418,96,424,96z
			 M416,320H64V112h352V320z"/>
	</g>
</g>
<g>
</g>
<g>
</g>
<g>
</g>
<g>
</g>
<g>
</g>
<g>
</g>
<g>
</g>
<g>
</g>
<g>
</g>
<g>
</g>
<g>
</g>
<g>
</g>
<g>
</g>
<g>
</g>
<g>
</g>
</svg>
